<svg xmlns="http://www.w3.org/2000/svg" viewBox="0 0 700 420"><rect width="700" height="420" fill="#efbc95"/><g transform="translate(80,66) rotate(-5 55 55)"><rect width="113" height="113" rx="22" fill="#ffeb8e" opacity="1"/><text x="56" y="78" text-anchor="middle" font-family="Georgia,serif" font-size="68" fill="#583c49">✦</text></g><g transform="translate(223,66) rotate(5 55 55)"><rect width="113" height="113" rx="22" fill="#583c49" opacity="0.85"/><text x="56" y="78" text-anchor="middle" font-family="Georgia,serif" font-size="68" fill="#efbc95">?</text></g><g transform="translate(366,66) rotate(-5 55 55)"><rect width="113" height="113" rx="22" fill="#583c49" opacity="0.85"/><text x="56" y="78" text-anchor="middle" font-family="Georgia,serif" font-size="68" fill="#efbc95">?</text></g><g transform="translate(509,66) rotate(5 55 55)"><rect width="113" height="113" rx="22" fill="#ffeb8e" opacity="1"/><text x="56" y="78" text-anchor="middle" font-family="Georgia,serif" font-size="68" fill="#583c49">✦</text></g><g transform="translate(80,209) rotate(-5 55 55)"><rect width="113" height="113" rx="22" fill="#583c49" opacity="0.85"/><text x="56" y="78" text-anchor="middle" font-family="Georgia,serif" font-size="68" fill="#efbc95">?</text></g><g transform="translate(223,209) rotate(5 55 55)"><rect width="113" height="113" rx="22" fill="#583c49" opacity="0.85"/><text x="56" y="78" text-anchor="middle" font-family="Georgia,serif" font-size="68" fill="#efbc95">◉</text></g><g transform="translate(366,209) rotate(-5 55 55)"><rect width="113" height="113" rx="22" fill="#ffeb8e" opacity="1"/><text x="56" y="78" text-anchor="middle" font-family="Georgia,serif" font-size="68" fill="#583c49">◉</text></g><g transform="translate(509,209) rotate(5 55 55)"><rect width="113" height="113" rx="22" fill="#583c49" opacity="0.85"/><text x="56" y="78" text-anchor="middle" font-family="Georgia,serif" font-size="68" fill="#efbc95">?</text></g></svg>